<svg width="15" height="21" viewBox="0 0 15 21" fill="none" xmlns="http://www.w3.org/2000/svg">
<path fill-rule="evenodd" clip-rule="evenodd" d="M10.9203 15.5863L10.1153 15.0909C10.9155 13.7906 11.7041 12.4066 12.2918 11.0235C12.882 9.63427 13.2448 8.30237 13.2448 7.09789C13.2448 3.71612 10.4739 0.945204 7.09207 0.945204C3.71124 0.945204 0.945204 3.71446 0.945204 7.09789C0.945204 8.30237 1.30795 9.63427 1.8982 11.0235C2.48588 12.4066 3.27447 13.7906 4.07467 15.0909L3.26968 15.5863C1.65215 12.9578 0 9.86239 0 7.09789C0 3.19339 3.18827 0 7.09207 0C10.9959 0 14.19 3.1941 14.19 7.09789C14.19 9.86239 12.5378 12.9578 10.9203 15.5863ZM7.70878 20.1941C7.38212 20.602 6.80785 20.602 6.48119 20.1941L6.45747 20.1645C5.93517 19.5124 4.8587 18.1684 3.26968 15.5863L4.07467 15.0909C5.53965 17.4715 6.55539 18.7727 7.09498 19.4483C7.63458 18.7727 8.65032 17.4715 10.1153 15.0909L10.9203 15.5863C9.33127 18.1684 8.25479 19.5124 7.7325 20.1645L7.70878 20.1941ZM8.51477 7.0979C8.51477 6.30475 7.88521 5.67519 7.09207 5.67519C6.30197 5.67519 5.6752 6.30171 5.67519 7.0979C5.67519 7.89103 6.29893 8.51477 7.09207 8.51477C7.88826 8.51477 8.51478 7.888 8.51477 7.0979ZM9.45998 7.09789C9.45997 5.78273 8.40723 4.72999 7.09207 4.72999C5.77691 4.72999 4.72999 5.78273 4.72999 7.09789C4.72998 8.41306 5.77691 9.45998 7.09207 9.45998C8.40724 9.45998 9.45998 8.41306 9.45998 7.09789Z" fill="white"/>
</svg>
