<svg width="79" height="26" viewBox="0 0 79 26" fill="none" xmlns="http://www.w3.org/2000/svg">
<path fill-rule="evenodd" clip-rule="evenodd" d="M0 8.3061C0 14.2459 0.214647 16.0509 1.1486 17.961C2.60049 20.9303 5.20278 22.5353 9.21415 22.9354C13.0995 23.3228 16.9378 21.9737 18.9926 18.7271C19.7941 17.4609 20.5 16.5112 20.5 11.0361V7.64766H17.1838H13.8676V10.4967C13.8676 14.9284 13.5662 15.245 12.6618 16.1947C11.9985 16.8911 10.9132 17.4609 10.25 17.4609C9.58676 17.4609 8.50147 16.8911 7.83824 16.1947C6.77826 15.0816 6.63235 14.0845 6.63235 7.96422V1H3.31618H0V8.3061Z" fill="black"/>
<path fill-rule="evenodd" clip-rule="evenodd" d="M22.5 3.14375C22.5 5.23666 22.5578 5.2875 24.9323 5.2875H27.75V13.5563V21.825H31.0132H34V13.5563V5.2875H36.79C38.8168 5.2875 38.9183 5.18521 38.9183 3.14375V1H30.7092H22.5V3.14375ZM41.9423 7.5562C38.849 9.70362 37.7429 13.0313 38.9244 16.6371C40.4708 21.357 46.4811 23.5137 49.6729 20.4934L51.08 19.1612V20.4934C51.08 21.6829 51.4041 21.825 54.1205 21.825H57.1609V14.1687V6.5125H54.1205C51.4041 6.5125 51.08 6.6546 51.08 7.84408V9.17626L49.6729 7.84408C47.9362 6.20074 44.1004 6.05802 41.9423 7.5562ZM60.2013 16.0063V25.5H63.5458H66.8903V22.4375V19.375L68.1064 20.6C69.6066 22.111 73.9088 22.2599 75.8796 20.8689C80.0401 17.9338 80.0401 10.4037 75.8796 7.46861C73.9088 6.07763 69.6066 6.22646 68.1064 7.7375L66.8903 8.9625V7.7375C66.8903 6.66073 66.4847 6.5125 63.5458 6.5125H60.2013V16.0063ZM49.9362 11.9607C51.1463 12.948 51.2704 13.3737 50.7638 14.8033C49.997 16.9679 47.994 17.7433 46.2853 16.5379C44.6057 15.3533 44.6386 12.9615 46.351 11.7537C48.0597 10.5476 48.2141 10.5562 49.9362 11.9607ZM72.4451 12.7912C73.2813 14.3654 72.3211 16.6328 70.6294 17.0787C68.9359 17.5246 66.8903 15.9334 66.8903 14.1687C66.8903 11.1681 71.0362 10.1397 72.4451 12.7912Z" fill="black"/>
<ellipse cx="17.5" cy="3.25" rx="3.5" ry="3.25" fill="#2853AF"/>
</svg>
