<svg width="24" height="24" viewBox="0 0 24 24" fill="none" xmlns="http://www.w3.org/2000/svg">
<path fill-rule="evenodd" clip-rule="evenodd" d="M21.37 10.6401C21.419 10.5531 21.419 10.4469 21.37 10.3599L16.8595 2.35992C16.8088 2.26997 16.7133 2.21429 16.6099 2.21429H7.64013C7.53666 2.21429 7.44124 2.26995 7.39052 2.35992L2.88005 10.3599C2.83102 10.4469 2.83102 10.5531 2.88005 10.6401L7.39052 18.6401C7.44124 18.7301 7.53666 18.7857 7.64013 18.7857H16.6099C16.7133 18.7857 16.8088 18.7301 16.8595 18.6401L21.37 10.6401ZM22.8675 9.51943C23.2108 10.1283 23.2108 10.8717 22.8675 11.4806L18.357 19.4806C18.0021 20.1103 17.3341 20.5 16.6099 20.5H7.64013C6.9159 20.5 6.24798 20.1103 5.89292 19.4806L1.38245 11.4806C1.03918 10.8717 1.03918 10.1283 1.38245 9.51943L5.89292 1.51947C6.24798 0.889726 6.9159 0.5 7.64013 0.5H16.6099C17.3341 0.5 18.0021 0.889726 18.357 1.51947L22.8675 9.51943Z" fill="#78828A"/>
<path fill-rule="evenodd" clip-rule="evenodd" d="M14.525 10.5C14.525 9.17456 13.4504 8.1 12.125 8.1C10.7996 8.1 9.725 9.17456 9.725 10.5C9.725 11.8254 10.7996 12.9 12.125 12.9C13.4504 12.9 14.525 11.8254 14.525 10.5ZM12.125 6.5C14.3342 6.5 16.125 8.29086 16.125 10.5C16.125 12.7092 14.3342 14.5 12.125 14.5C9.91586 14.5 8.125 12.7092 8.125 10.5C8.125 8.29086 9.91586 6.5 12.125 6.5Z" fill="#78828A"/>
</svg>
